<svg width="126" height="147" viewBox="0 0 126 147" fill="none" xmlns="http://www.w3.org/2000/svg">
<path d="M125.171 99.8462C125.204 108.51 122.451 129.609 83.7971 145.066C71.9122 148.001 37.8442 138.31 22.2086 133.582C4.16762 128.126 2.02242 120.096 0.612807 109.663C-0.796806 99.2303 11.4181 58.2813 11.4181 58.2813L27.5328 6.3033C27.7139 5.71922 27.9403 5.14334 28.2631 4.62415C33.885 -4.41635 45.857 3.14704 43.3043 10.6862L33.5109 55.4102L34.2314 53.6757C39.665 40.5958 58.9175 43.2377 60.644 57.3001C78.5983 41.3335 87.6518 59.961 87.6518 59.961C93.1955 54.9296 113.861 61.9441 110.712 71.2448L109.321 75.3527C109.418 75.4207 109.512 75.488 109.606 75.5547C110.446 76.1553 111.16 76.9113 111.752 77.7584L123.367 94.4066C124.484 96.0078 125.163 97.8938 125.171 99.8462Z" fill="#FEC89A"/>
<path d="M97.9681 103.213L95.6689 98.6619M33.5109 55.4102L43.3043 10.6862C45.857 3.14704 33.885 -4.41635 28.2631 4.62415C27.9403 5.14334 27.7139 5.71922 27.5328 6.3033L11.4181 58.2813C11.4181 58.2813 -0.796806 99.2303 0.612807 109.663C2.02242 120.096 4.16762 128.126 22.2086 133.582C37.8442 138.31 71.9122 148.001 83.7971 145.066C122.451 129.609 125.204 108.51 125.171 99.8462C125.163 97.8938 124.484 96.0078 123.367 94.4066L111.752 77.7584C111.16 76.9113 110.446 76.1553 109.606 75.5547C109.512 75.488 109.418 75.4207 109.321 75.3527M33.5109 55.4102L34.2314 53.6757C39.665 40.5958 58.9175 43.2377 60.644 57.3001M33.5109 55.4102L34.9538 106.587C34.9758 107.366 35.0672 108.148 35.3588 108.871C37.8066 114.935 46.231 118.341 51.5686 115.494M51.5686 115.494C53.8791 114.261 55.6112 111.857 56.0298 107.989C57.3227 96.0427 60.2212 66.6146 60.8114 60.6087C60.8833 59.8778 60.8724 59.1603 60.7829 58.4313C60.7365 58.053 60.6857 57.6395 60.644 57.3001M51.5686 115.494C54.9088 119.077 62.9965 125.083 67.33 118.737M87.6518 59.961C87.6518 59.961 72.4312 104.914 68.7573 115.765C68.3506 116.966 67.8694 117.947 67.33 118.737M87.6518 59.961C87.6518 59.961 78.5983 41.3335 60.644 57.3001M87.6518 59.961C93.1955 54.9296 113.861 61.9441 110.712 71.2448L109.321 75.3527M109.321 75.3527C104.763 72.1366 96.8615 67.5423 92.4409 68.5C88.8626 69.2751 86.904 72.509 85.9749 75.297C85.3636 77.1313 85.7868 79.1004 86.6589 80.8266L95.6689 98.6619M95.6689 98.6619L89.2754 117.545L86.5036 120.061L84.2904 121.764C80.9451 124.339 76.3426 124.533 72.7904 122.249L67.33 118.737" stroke="#462202"/>
</svg>
