<svg width="448" height="126" viewBox="0 0 448 126" fill="none" xmlns="http://www.w3.org/2000/svg">
<path fill-rule="evenodd" clip-rule="evenodd" d="M226.814 0.00256399C300.375 0.249479 408.69 18.6202 438.921 24.0114C443.656 24.8559 447.016 28.9678 447.016 33.778V115.451C447.015 121.88 441.047 126.668 434.759 125.326C426.972 123.664 415.834 121.364 402.402 118.798L396.993 108.789L396.72 108.283L396.255 108.718L388.319 116.173C342.656 107.867 278.573 98.2399 226.814 98.2399C150.431 93.4882 47.9705 116.242 12.6143 124.839C6.2264 126.393 0.000126225 121.564 0 114.99V33.7877C0.000158658 28.9733 3.35597 24.8613 8.09668 24.0221C14.5798 22.8748 24.6588 21.1356 37.2402 19.1061L42.1377 31.194L43.1016 31.0065V18.1686C91.0269 10.5718 169.258 -0.190596 226.814 0.00256399Z" fill="#6F300F"/>
<path fill-rule="evenodd" clip-rule="evenodd" d="M225.812 6.14222C298.455 6.36225 405.32 22.6859 435.623 27.5573C440.439 28.3314 443.905 32.4836 443.905 37.361V108.258C443.904 114.6 438.097 119.366 431.87 118.167C424.353 116.719 413.658 114.721 400.76 112.491L397.054 106.259L396.779 105.797L396.334 106.176L390.901 110.816C345.44 103.217 279.045 93.9391 225.812 93.9391C150.063 89.6869 48.4196 110.08 13.5277 117.741C7.20581 119.129 1.16854 114.323 1.16833 107.85V37.3698C1.16848 32.4885 4.62735 28.3361 9.44763 27.567C15.8647 26.5433 25.7219 25.0106 37.9847 23.2252L42.9037 34.2604L43.8607 34.0563V22.3776C91.3276 15.5882 168.808 5.96959 225.812 6.14222Z" fill="#934A1D"/>
<path fill-rule="evenodd" clip-rule="evenodd" d="M226.386 10.4408C298.731 10.6458 405.108 25.8332 435.511 30.4037C440.374 31.1347 443.904 35.3113 443.904 40.2288V105.071C443.904 111.36 438.193 116.114 432.004 114.997C424.505 113.645 413.802 111.776 400.885 109.686L397.173 103.843L396.896 103.41L396.467 103.751L391.006 108.114C345.666 101.023 279.465 92.3695 226.386 92.3695C150.747 88.3969 49.2211 107.477 14.5381 114.606C8.25738 115.897 2.33496 111.105 2.33496 104.693V40.2376C2.33501 35.3163 5.85618 31.1406 10.7236 30.4144C17.1255 29.4593 26.9036 28.0375 39.0479 26.3831L43.9648 36.7044L44.916 36.4896V25.5902C92.2577 19.2546 169.532 10.2797 226.386 10.4408Z" fill="#BE6126"/>
<path d="M418.997 27.6269C425.94 28.8634 431.742 29.9508 435.998 30.7675C440.663 31.6628 443.954 35.7417 443.954 40.4912V73.041L442.411 42.1543C442.212 38.1738 439.67 34.6963 435.912 33.3671C431.906 31.9501 426.11 29.9479 418.997 27.6269Z" fill="#F4833E"/>
<path d="M418.995 27.6272C425.939 28.8639 431.741 29.95 435.998 30.7668C440.663 31.662 443.954 35.7411 443.954 40.4904V73.0412L442.411 42.1545C442.212 38.174 439.67 34.6966 435.912 33.3674C431.906 31.9502 426.108 29.9484 418.995 27.6272Z" fill="#F4833E"/>
<path d="M69.6395 20.8755H63.8038C68.4724 27.3223 74.6972 77.362 73.3355 64.1613C72.2462 53.6008 68.7318 29.1643 69.6395 20.8755Z" fill="#934A1D"/>
<path d="M78.2002 20.8755H73.5297C77.2661 24.9648 82.2479 56.7057 81.1581 48.3323C80.2863 41.6336 77.4736 26.1332 78.2002 20.8755Z" fill="#934A1D"/>
<path d="M333.839 15.2074L336.507 16.3673C336.313 24.3701 336.059 34.9683 335.87 43.2735C335.888 45.984 335.86 48.8133 335.772 51.7328C335.469 61.8193 335.609 54.7266 335.87 43.2735C335.781 29.8283 334.557 19.3059 333.839 15.2074Z" fill="#934A1D"/>
<path d="M443.903 73.9851L443.903 77.9759C440.969 76.7888 437.033 75.2242 433.832 73.9726C432.603 73.6637 431.305 73.2356 429.955 72.6574C426.034 70.9781 429.145 72.1396 433.832 73.9726C438.609 75.1736 442.331 74.5731 443.903 73.9851Z" fill="#934A1D"/>
</svg>
