<svg width="808" height="444" viewBox="0 0 808 444" fill="none" xmlns="http://www.w3.org/2000/svg">
<g filter="url(#filter0_f_580_3)">
<path d="M552 1L470.855 284H327.144L246 1H552Z" fill="url(#paint0_linear_580_3)" fill-opacity="0.25"/>
</g>
<g filter="url(#filter1_f_580_3)">
<path d="M695.776 88.4457L533.566 323.239L475.682 293.442L572.527 25L695.776 88.4457Z" fill="url(#paint1_linear_580_3)" fill-opacity="0.25"/>
</g>
<g filter="url(#filter2_f_580_3)">
<path d="M774.63 179.82L551.614 355.619L523.231 325.176L714.195 115L774.63 179.82Z" fill="url(#paint2_linear_580_3)" fill-opacity="0.25"/>
</g>
<g filter="url(#filter3_f_580_3)">
<path d="M806.219 299.663L615.049 366.7L596.813 329.286L767.389 220L806.219 299.663Z" fill="url(#paint3_linear_580_3)" fill-opacity="0.25"/>
</g>
<g filter="url(#filter4_f_580_3)">
<path d="M30.9992 179.82L254.015 355.619L282.398 325.176L91.4341 115L30.9992 179.82Z" fill="url(#paint4_linear_580_3)" fill-opacity="0.25"/>
</g>
<g filter="url(#filter5_f_580_3)">
<path d="M1 299.663L181.891 361.69L200.128 324.276L39.8296 220L1 299.663Z" fill="url(#paint5_linear_580_3)" fill-opacity="0.25"/>
</g>
<g filter="url(#filter6_f_580_3)">
<path d="M107 85.3302L263.262 324.124L321.875 295.79L231.803 25L107 85.3302Z" fill="url(#paint6_linear_580_3)" fill-opacity="0.25"/>
</g>
<path d="M628.633 410.792C599.53 405.966 598.837 404.248 602.994 398.123V376.664C515.213 346.581 323.971 338.244 208.716 376.937L210.103 401.526C211.027 404.021 208.577 409.284 196.936 410.373C182.384 411.734 144.273 411.053 110.32 440.997C107.317 443.493 101.589 445.625 102.697 434.192C103.806 422.759 100.903 394.563 106.162 379.068C107.548 374.985 108.241 370.901 102.005 366.138L51.4208 338.235C48.4181 337.328 43.937 334.152 50.035 328.708C58.351 321.283 69.0689 307.611 129.03 285.153C128.343 277.35 126.95 269.977 126.95 263.375C246.688 180.621 546.173 172.863 677.136 260.653C677.846 267.776 677.914 275.597 677.48 283.792C692.169 285.425 734.186 308.972 753.359 320.541C761.674 324.624 774.147 334.424 757.517 340.957C740.886 347.491 713.169 358.652 701.389 363.415C705.085 379.068 712.476 417.723 712.476 428.067C712.476 438.411 705.085 437.193 701.389 435.291C687.776 420.585 647.867 413.977 629.601 410.952L628.633 410.792Z" fill="#FF0000"/>
<path d="M645.689 401.526C635.526 399.257 605.396 394.585 602.994 398.123M645.689 401.526C654.01 396.272 674.867 333.23 677.48 283.792M645.689 401.526C638.947 392.232 623.906 383.831 602.994 376.664M602.994 398.123C598.837 404.248 599.53 405.966 628.633 410.792C646.418 413.741 687.531 420.319 701.389 435.291C705.085 437.193 712.476 438.411 712.476 428.067C712.476 417.723 705.085 379.068 701.389 363.415C713.169 358.652 740.886 347.491 757.517 340.957C774.147 334.424 761.674 324.624 753.359 320.541C734.186 308.972 692.169 285.425 677.48 283.792M602.994 398.123V376.664M677.48 283.792C677.914 275.597 677.846 267.776 677.136 260.653C546.173 172.863 246.688 180.621 126.95 263.375C126.95 269.977 128.343 277.35 129.03 285.153M210.103 401.526C208.717 389.957 177.672 404.52 167.14 405.609C162.312 407.004 159.121 406.047 158.014 404.248M210.103 401.526C211.027 404.021 208.577 409.284 196.936 410.373C182.384 411.734 144.273 411.053 110.32 440.997C107.317 443.493 101.589 445.625 102.697 434.192C103.806 422.759 100.903 394.563 106.162 379.068C107.548 374.985 108.241 370.901 102.005 366.138L51.4208 338.235C48.4181 337.328 43.937 334.152 50.035 328.708C58.351 321.283 69.0689 307.611 129.03 285.153M210.103 401.526L208.716 376.937M129.03 285.153L158.014 404.248M602.994 376.664C515.213 346.581 323.971 338.244 208.716 376.937M208.716 376.937C190.574 383.028 174.581 389.603 160.905 398.123C157.795 400.06 156.96 402.536 158.014 404.248" stroke="#670101" stroke-width="2"/>
<path d="M208.8 377.103L210.086 400.239C205.199 388.535 161.212 413.305 157.61 403.233C155.362 396.946 190.622 383.273 208.8 377.103Z" fill="#670101" stroke="#670101" stroke-width="2"/>
<path d="M601.083 402.225L602.894 376.831C618.417 378.542 642.996 395.275 645.842 401.155C643.513 410.778 604.446 386.721 601.083 402.225Z" fill="#670101" stroke="#670101" stroke-width="2"/>
<path d="M629.638 386.63C545.9 331.571 259.303 346.977 174.074 389.896C174.074 389.896 172.53 387.991 167.9 377.375C163.27 366.76 299.868 341.86 396.03 340.343C498.127 338.732 637.098 370.843 634.011 377.647C630.924 384.452 629.638 386.63 629.638 386.63Z" fill="#670101" fill-opacity="0.25"/>
<path d="M754.791 320.354C756.31 321.264 757.658 322.083 758.811 322.806C760.178 323.663 761.279 324.385 762.08 324.953C762.479 325.237 762.81 325.486 763.063 325.698C763.303 325.899 763.515 326.099 763.634 326.283C765.152 328.617 766.032 330.621 766.066 332.467C766.101 334.352 765.254 335.978 763.553 337.54C763.344 337.732 762.995 337.955 762.564 338.198C762.121 338.448 761.553 338.74 760.877 339.068C759.526 339.724 757.721 340.535 755.578 341.461C751.289 343.313 745.621 345.63 739.446 348.095C727.263 352.958 713.09 358.4 703.6 361.987C705.604 372.608 708.493 388.518 710.747 402.268C711.888 409.231 712.867 415.644 713.486 420.537C713.795 422.983 714.015 425.056 714.12 426.63C714.172 427.417 714.197 428.087 714.188 428.62C714.179 429.135 714.139 429.58 714.036 429.88C713.235 432.196 712.193 434.49 710.441 435.794C708.629 437.143 706.187 437.352 702.823 435.807L702.75 435.774L702.691 435.719C696.246 429.733 687.087 425.264 676.849 421.813C666.618 418.363 655.35 415.942 644.722 414.028C639.409 413.072 634.26 412.242 629.481 411.474C624.705 410.706 620.295 409.999 616.471 409.288C612.651 408.578 609.395 407.859 606.931 407.067C605.699 406.67 604.649 406.25 603.819 405.795C602.996 405.344 602.346 404.834 601.967 404.237L601.864 404.074L601.897 403.884L603.894 392.348C606.05 392.995 608.711 393.603 611.749 394.206C615.344 394.92 619.489 395.633 623.98 396.406C628.473 397.18 633.318 398.016 638.322 398.975C648.332 400.894 658.97 403.306 668.694 406.704C678.423 410.105 687.201 414.481 693.522 420.309L693.581 420.363L693.654 420.396C696.868 421.861 699.071 422.156 700.696 421.312C702.296 420.48 703.146 418.628 703.922 416.397C704.025 416.102 704.063 415.666 704.072 415.165C704.08 414.646 704.057 413.993 704.005 413.228C703.903 411.695 703.686 409.677 703.383 407.297C702.777 402.535 701.817 396.292 700.698 389.515C698.489 376.139 695.657 360.662 693.692 350.326C702.997 346.835 716.889 341.54 728.831 336.809C734.885 334.41 740.442 332.155 744.647 330.353C746.749 329.452 748.518 328.662 749.843 328.024C750.506 327.704 751.063 327.42 751.498 327.177C751.92 326.94 752.264 326.723 752.47 326.535C754.139 325.014 754.972 323.427 754.938 321.586C754.93 321.183 754.879 320.773 754.791 320.354Z" fill="#670101" fill-opacity="0.25"/>
<path d="M61.9966 319.359C61.1538 319.917 60.3608 320.452 59.6226 320.966C56.5775 323.087 54.3951 324.868 53.3647 326.203C53.0905 326.445 52.719 326.732 52.2778 327.067C51.8286 327.409 51.3151 327.794 50.7974 328.211C49.7681 329.039 48.6743 330.026 47.9673 331.111C47.2539 332.207 46.8914 333.478 47.48 334.795C48.0502 336.07 49.4614 337.26 51.9409 338.364C54.0253 339.293 63.6116 344.31 74.5601 350.437C85.4666 356.539 97.6809 363.718 105.126 369.016L106.715 371.565L107.128 374.071C103.947 383.921 102.928 397.469 102.679 408.969C102.554 414.749 102.624 420.026 102.714 424.076C102.806 428.15 102.916 430.934 102.876 431.791C102.802 433.404 102.665 435.3 102.692 437.025C102.719 438.732 102.904 440.398 103.553 441.514C103.889 442.09 104.362 442.544 105.013 442.762C105.656 442.977 106.407 442.94 107.26 442.667C108.949 442.127 111.21 440.612 114.248 437.817C133.027 420.542 155.982 415.068 174.727 412.36C179.413 411.684 183.83 411.18 187.855 410.707C191.875 410.235 195.512 409.792 198.616 409.236C201.713 408.682 204.321 408.01 206.27 407.062C208.222 406.113 209.585 404.852 210.055 403.091L210.082 402.992L210.067 402.892L208.733 393.456C207.622 393.707 206.439 393.957 205.192 394.204C201.596 394.918 197.451 395.631 192.96 396.404C188.467 397.178 183.623 398.013 178.619 398.973C168.608 400.892 157.971 403.303 148.247 406.702C138.518 410.103 129.739 414.479 123.418 420.307L123.36 420.361L123.287 420.394C120.072 421.859 117.869 422.153 116.245 421.31C114.644 420.478 113.795 418.625 113.018 416.395C112.845 415.897 112.744 414.972 112.687 413.771C112.629 412.544 112.614 410.959 112.641 409.097C112.696 405.37 112.918 400.506 113.296 395.104C114.052 384.301 115.433 371.321 117.35 360.957C117.395 360.712 117.269 360.487 117.043 360.4C107.602 356.771 93.9974 349.989 82.4517 343.836C76.676 340.758 71.408 337.834 67.4253 335.534C65.4343 334.385 63.7616 333.389 62.5063 332.608C61.2697 331.839 60.3949 331.253 60.0386 330.928C59.101 330.073 58.7672 328.91 58.8052 327.646C58.8429 326.394 59.2453 325.002 59.8247 323.601C60.4059 322.195 61.1821 320.742 61.9966 319.359Z" fill="#670101" fill-opacity="0.25"/>
<path d="M408.415 199.633C557.052 194.56 653.809 246.528 673.682 258.274C676.082 259.693 677.309 262.343 677.033 265.118C676.509 270.388 670.859 273.569 666.056 271.337C634.023 256.451 528.178 211.974 408.415 212.698C266.345 213.557 166.321 257.245 137.245 271.601C133.297 273.551 128.543 270.654 128.543 266.251C128.543 264.263 129.535 262.444 131.269 261.472C147.757 252.227 239.145 205.411 408.415 199.633Z" fill="#FF3401" fill-opacity="0.5"/>
<path d="M645.917 401.716C651.273 391.218 679.431 333.728 676.611 261.149L671.309 257.338L665.392 254.072C665.392 254.072 663.615 293.533 657.156 319.398C650.419 346.373 629.637 386.63 629.637 386.63C643.687 395.498 646.395 400.367 645.917 401.716C645.89 401.77 645.864 401.822 645.838 401.873C645.87 401.827 645.897 401.775 645.917 401.716Z" fill="#670101" fill-opacity="0.25"/>
<path d="M157.568 400.048C156.273 386.844 125.505 291.305 127.772 263.326L139.861 256.521C139.861 256.521 140.862 298.705 147.321 324.57C154.058 351.545 174.074 390.168 174.074 390.168C161.925 396.705 158.183 398.881 157.568 400.048C157.596 400.332 157.61 400.577 157.61 400.784C157.456 400.566 157.415 400.338 157.568 400.048Z" fill="#670101" fill-opacity="0.25"/>
<g filter="url(#filter7_d_580_3)">
<path d="M366.14 135.365C386.106 87.4895 395.114 78.5734 401.967 81.0869C407.619 80.0074 435.629 135.191 439.531 135.419C443.016 135.622 498.438 143.578 501.402 154.529C511.626 172.036 472.803 204.297 465.952 214.467C468.046 227.272 473.825 274.817 467.244 280.07C451.682 283.39 422.565 266.19 406.11 260.298C395.465 263.2 348.083 285.802 342.74 281.263C332.209 279.521 337.657 233.758 336.878 209.756C337.993 209.821 295.325 168.579 297.842 156.747C300.656 143.524 337.679 144.274 366.14 135.365Z" fill="#D59F00" stroke="#8D4115" stroke-width="3"/>
<path d="M364.81 134.818C383.844 90.9549 392.46 82.799 399.037 85.1211C404.453 84.1447 431.436 134.827 435.179 135.045C438.52 135.24 491.678 142.673 494.544 152.724C504.388 168.806 467.237 198.301 460.693 207.612C462.729 219.362 468.379 262.984 462.082 267.786C447.168 270.793 419.211 254.947 403.42 249.503C393.22 252.138 347.842 272.753 342.708 268.577C332.607 266.954 337.726 224.993 336.923 202.977C337.992 203.039 296.987 165.108 299.374 154.263C302.041 142.141 337.541 142.92 364.81 134.818Z" fill="url(#paint7_linear_580_3)"/>
<ellipse cx="4.8921" cy="16.8623" rx="4.8921" ry="16.8623" transform="matrix(0.89607 0.446692 -0.438532 0.897352 391.68 90.0677)" fill="white" fill-opacity="0.7"/>
<ellipse cx="4.92196" cy="16.7598" rx="4.92196" ry="16.7598" transform="matrix(0.171779 0.985898 -0.984352 0.171837 345.289 145.138)" fill="white" fill-opacity="0.7"/>
<ellipse cx="3.2233" cy="4.73002" rx="3.2233" ry="4.73002" transform="matrix(0.89607 0.446692 -0.438532 0.897352 376.156 124.392)" fill="white" fill-opacity="0.7"/>
</g>
<g filter="url(#filter8_d_580_3)">
<path d="M604.156 233.037C601.004 193.237 596.629 184.427 591.135 184.427C587.338 182.155 554.422 214.541 551.574 213.673C549.03 212.898 507.479 203.983 502.806 211.096C491.405 221.016 511.7 254.543 514.238 263.687C509.757 272.366 494.544 305.122 498.034 310.649C508.408 317.157 533.27 312.453 546.429 312.555C553.378 317.462 582.053 346.286 586.938 344.425C594.886 345.954 601.642 311.515 607.791 294.414C606.977 294.166 647.144 275.708 648.097 266.511C649.161 256.233 622.467 246.986 604.156 233.037Z" fill="#D59F00" stroke="#8D4115" stroke-width="3"/>
<path d="M605.235 232.994C601.817 196.334 597.544 188.175 592.293 188.111C588.64 185.975 557.509 215.386 554.777 214.554C552.339 213.812 512.531 205.117 508.137 211.607C497.341 220.601 517.082 251.69 519.601 260.134C515.406 268.068 501.2 298.029 504.592 303.157C514.574 309.268 538.29 305.233 550.869 305.482C557.562 310.079 585.264 336.94 589.914 335.286C597.527 336.786 603.633 305.177 609.336 289.514C608.555 289.276 646.761 272.766 647.577 264.315C648.49 254.869 622.881 246.045 605.235 232.994Z" fill="url(#paint8_linear_580_3)"/>
<ellipse cx="3.72838" cy="12.7992" rx="3.72838" ry="12.7992" transform="matrix(-0.978689 0.111785 0.138495 1.00519 596.558 193.677)" fill="white" fill-opacity="0.7"/>
<ellipse cx="3.68731" cy="12.9383" rx="3.68731" ry="12.9383" transform="matrix(-0.470741 0.888309 0.861498 0.497609 616.961 245.652)" fill="white" fill-opacity="0.7"/>
<ellipse cx="2.45655" cy="3.59029" rx="2.45655" ry="3.59029" transform="matrix(-0.978689 0.111785 0.138495 1.00519 599.683 222.532)" fill="white" fill-opacity="0.7"/>
</g>
<g filter="url(#filter9_d_580_3)">
<path d="M204.988 233.037C208.139 193.237 212.515 184.427 218.009 184.427C221.806 182.155 254.722 214.541 257.57 213.673C260.113 212.898 301.665 203.983 306.338 211.096C317.739 221.016 297.443 254.543 294.905 263.687C299.387 272.366 314.6 305.122 311.11 310.649C300.736 317.157 275.874 312.453 262.715 312.555C255.765 317.462 227.091 346.286 222.206 344.425C214.257 345.954 207.501 311.515 201.353 294.414C202.167 294.166 161.999 275.708 161.047 266.511C159.982 256.233 186.676 246.986 204.988 233.037Z" fill="#D59F00" stroke="#8D4115" stroke-width="3"/>
<path d="M203.908 232.994C207.326 196.334 211.599 188.175 216.85 188.111C220.503 185.975 251.634 215.386 254.366 214.554C256.804 213.812 296.612 205.117 301.006 211.607C311.802 220.601 292.061 251.69 289.542 260.134C293.737 268.068 307.943 298.029 304.551 303.157C294.569 309.268 270.853 305.233 258.274 305.482C251.582 310.079 223.879 336.94 219.229 335.286C211.616 336.786 205.51 305.177 199.807 289.514C200.588 289.276 162.382 272.766 161.566 264.315C160.653 254.869 186.262 246.045 203.908 232.994Z" fill="url(#paint9_linear_580_3)"/>
<ellipse cx="3.72838" cy="12.7992" rx="3.72838" ry="12.7992" transform="matrix(0.978689 0.111785 -0.138495 1.00519 212.585 193.677)" fill="white" fill-opacity="0.7"/>
<ellipse cx="3.68731" cy="12.9383" rx="3.68731" ry="12.9383" transform="matrix(0.470741 0.888309 -0.861498 0.497609 192.181 245.652)" fill="white" fill-opacity="0.7"/>
<ellipse cx="2.45655" cy="3.59029" rx="2.45655" ry="3.59029" transform="matrix(0.978689 0.111785 -0.138495 1.00519 209.46 222.532)" fill="white" fill-opacity="0.7"/>
</g>
<defs>
<filter id="filter0_f_580_3" x="245" y="0" width="308" height="285" filterUnits="userSpaceOnUse" color-interpolation-filters="sRGB">
<feFlood flood-opacity="0" result="BackgroundImageFix"/>
<feBlend mode="normal" in="SourceGraphic" in2="BackgroundImageFix" result="shape"/>
<feGaussianBlur stdDeviation="0.5" result="effect1_foregroundBlur_580_3"/>
</filter>
<filter id="filter1_f_580_3" x="474.682" y="24" width="222.093" height="300.239" filterUnits="userSpaceOnUse" color-interpolation-filters="sRGB">
<feFlood flood-opacity="0" result="BackgroundImageFix"/>
<feBlend mode="normal" in="SourceGraphic" in2="BackgroundImageFix" result="shape"/>
<feGaussianBlur stdDeviation="0.5" result="effect1_foregroundBlur_580_3"/>
</filter>
<filter id="filter2_f_580_3" x="522.231" y="114" width="253.399" height="242.619" filterUnits="userSpaceOnUse" color-interpolation-filters="sRGB">
<feFlood flood-opacity="0" result="BackgroundImageFix"/>
<feBlend mode="normal" in="SourceGraphic" in2="BackgroundImageFix" result="shape"/>
<feGaussianBlur stdDeviation="0.5" result="effect1_foregroundBlur_580_3"/>
</filter>
<filter id="filter3_f_580_3" x="595.813" y="219" width="211.406" height="148.7" filterUnits="userSpaceOnUse" color-interpolation-filters="sRGB">
<feFlood flood-opacity="0" result="BackgroundImageFix"/>
<feBlend mode="normal" in="SourceGraphic" in2="BackgroundImageFix" result="shape"/>
<feGaussianBlur stdDeviation="0.5" result="effect1_foregroundBlur_580_3"/>
</filter>
<filter id="filter4_f_580_3" x="29.999" y="114" width="253.399" height="242.619" filterUnits="userSpaceOnUse" color-interpolation-filters="sRGB">
<feFlood flood-opacity="0" result="BackgroundImageFix"/>
<feBlend mode="normal" in="SourceGraphic" in2="BackgroundImageFix" result="shape"/>
<feGaussianBlur stdDeviation="0.5" result="effect1_foregroundBlur_580_3"/>
</filter>
<filter id="filter5_f_580_3" x="0" y="219" width="201.127" height="143.69" filterUnits="userSpaceOnUse" color-interpolation-filters="sRGB">
<feFlood flood-opacity="0" result="BackgroundImageFix"/>
<feBlend mode="normal" in="SourceGraphic" in2="BackgroundImageFix" result="shape"/>
<feGaussianBlur stdDeviation="0.5" result="effect1_foregroundBlur_580_3"/>
</filter>
<filter id="filter6_f_580_3" x="106" y="24" width="216.875" height="301.124" filterUnits="userSpaceOnUse" color-interpolation-filters="sRGB">
<feFlood flood-opacity="0" result="BackgroundImageFix"/>
<feBlend mode="normal" in="SourceGraphic" in2="BackgroundImageFix" result="shape"/>
<feGaussianBlur stdDeviation="0.5" result="effect1_foregroundBlur_580_3"/>
</filter>
<filter id="filter7_d_580_3" x="286.236" y="79.2028" width="228.371" height="224.161" filterUnits="userSpaceOnUse" color-interpolation-filters="sRGB">
<feFlood flood-opacity="0" result="BackgroundImageFix"/>
<feColorMatrix in="SourceAlpha" type="matrix" values="0 0 0 0 0 0 0 0 0 0 0 0 0 0 0 0 0 0 127 0" result="hardAlpha"/>
<feOffset dy="10"/>
<feGaussianBlur stdDeviation="5"/>
<feComposite in2="hardAlpha" operator="out"/>
<feColorMatrix type="matrix" values="0 0 0 0 0.435294 0 0 0 0 0.188235 0 0 0 0 0.0588235 0 0 0 1 0"/>
<feBlend mode="normal" in2="BackgroundImageFix" result="effect1_dropShadow_580_3"/>
<feBlend mode="normal" in="SourceGraphic" in2="effect1_dropShadow_580_3" result="shape"/>
</filter>
<filter id="filter8_d_580_3" x="486.047" y="182.784" width="173.552" height="183.256" filterUnits="userSpaceOnUse" color-interpolation-filters="sRGB">
<feFlood flood-opacity="0" result="BackgroundImageFix"/>
<feColorMatrix in="SourceAlpha" type="matrix" values="0 0 0 0 0 0 0 0 0 0 0 0 0 0 0 0 0 0 127 0" result="hardAlpha"/>
<feOffset dy="10"/>
<feGaussianBlur stdDeviation="5"/>
<feComposite in2="hardAlpha" operator="out"/>
<feColorMatrix type="matrix" values="0 0 0 0 0.435294 0 0 0 0 0.188235 0 0 0 0 0.0588235 0 0 0 1 0"/>
<feBlend mode="normal" in2="BackgroundImageFix" result="effect1_dropShadow_580_3"/>
<feBlend mode="normal" in="SourceGraphic" in2="effect1_dropShadow_580_3" result="shape"/>
</filter>
<filter id="filter9_d_580_3" x="149.544" y="182.784" width="173.552" height="183.256" filterUnits="userSpaceOnUse" color-interpolation-filters="sRGB">
<feFlood flood-opacity="0" result="BackgroundImageFix"/>
<feColorMatrix in="SourceAlpha" type="matrix" values="0 0 0 0 0 0 0 0 0 0 0 0 0 0 0 0 0 0 127 0" result="hardAlpha"/>
<feOffset dy="10"/>
<feGaussianBlur stdDeviation="5"/>
<feComposite in2="hardAlpha" operator="out"/>
<feColorMatrix type="matrix" values="0 0 0 0 0.435294 0 0 0 0 0.188235 0 0 0 0 0.0588235 0 0 0 1 0"/>
<feBlend mode="normal" in2="BackgroundImageFix" result="effect1_dropShadow_580_3"/>
<feBlend mode="normal" in="SourceGraphic" in2="effect1_dropShadow_580_3" result="shape"/>
</filter>
<linearGradient id="paint0_linear_580_3" x1="399" y1="1" x2="399" y2="284" gradientUnits="userSpaceOnUse">
<stop offset="0.0384615" stop-color="white" stop-opacity="0.05"/>
<stop offset="0.677885" stop-color="#FFF700"/>
<stop offset="1" stop-color="#FAFA00"/>
</linearGradient>
<linearGradient id="paint1_linear_580_3" x1="634.151" y1="56.7228" x2="504.624" y2="308.341" gradientUnits="userSpaceOnUse">
<stop offset="0.0384615" stop-color="white" stop-opacity="0.05"/>
<stop offset="0.677885" stop-color="#FFF700"/>
<stop offset="1" stop-color="#FAFA00"/>
</linearGradient>
<linearGradient id="paint2_linear_580_3" x1="744.412" y1="147.41" x2="537.422" y2="340.397" gradientUnits="userSpaceOnUse">
<stop offset="0.0384615" stop-color="white" stop-opacity="0.05"/>
<stop offset="0.677885" stop-color="#FFF700"/>
<stop offset="1" stop-color="#FAFA00"/>
</linearGradient>
<linearGradient id="paint3_linear_580_3" x1="786.804" y1="259.832" x2="605.931" y2="347.993" gradientUnits="userSpaceOnUse">
<stop offset="0.0384615" stop-color="white" stop-opacity="0.05"/>
<stop offset="0.677885" stop-color="#FFF700"/>
<stop offset="1" stop-color="#FAFA00"/>
</linearGradient>
<linearGradient id="paint4_linear_580_3" x1="61.2166" y1="147.41" x2="268.207" y2="340.397" gradientUnits="userSpaceOnUse">
<stop offset="0.0384615" stop-color="white" stop-opacity="0.05"/>
<stop offset="0.677885" stop-color="#FFF700"/>
<stop offset="1" stop-color="#FAFA00"/>
</linearGradient>
<linearGradient id="paint5_linear_580_3" x1="20.4148" y1="259.832" x2="191.01" y2="342.983" gradientUnits="userSpaceOnUse">
<stop offset="0.0384615" stop-color="white" stop-opacity="0.05"/>
<stop offset="0.677885" stop-color="#FFF700"/>
<stop offset="1" stop-color="#FAFA00"/>
</linearGradient>
<linearGradient id="paint6_linear_580_3" x1="169.402" y1="55.1651" x2="292.568" y2="309.957" gradientUnits="userSpaceOnUse">
<stop offset="0.0384615" stop-color="white" stop-opacity="0.05"/>
<stop offset="0.677885" stop-color="#FFF700"/>
<stop offset="1" stop-color="#FAFA00"/>
</linearGradient>
<linearGradient id="paint7_linear_580_3" x1="387.202" y1="97.8624" x2="390.633" y2="271.869" gradientUnits="userSpaceOnUse">
<stop offset="0.466346" stop-color="#FEFA01"/>
<stop offset="0.754808" stop-color="#D59F00" stop-opacity="0.8"/>
</linearGradient>
<linearGradient id="paint8_linear_580_3" x1="597.802" y1="200.427" x2="549.809" y2="323.029" gradientUnits="userSpaceOnUse">
<stop offset="0.466346" stop-color="#FEFA01"/>
<stop offset="0.754808" stop-color="#D59F00" stop-opacity="0.8"/>
</linearGradient>
<linearGradient id="paint9_linear_580_3" x1="211.341" y1="200.427" x2="259.334" y2="323.029" gradientUnits="userSpaceOnUse">
<stop offset="0.466346" stop-color="#FEFA01"/>
<stop offset="0.754808" stop-color="#D59F00" stop-opacity="0.8"/>
</linearGradient>
</defs>
</svg>
